<?xml version="1.0" encoding="utf-8"?>
<!-- Generator: Adobe Illustrator 19.2.1, SVG Export Plug-In . SVG Version: 6.00 Build 0)  -->
<svg version="1.1" id="Layer_1" xmlns="http://www.w3.org/2000/svg" xmlns:xlink="http://www.w3.org/1999/xlink" x="0px" y="0px"
	 viewBox="0 0 400 400" style="enable-background:new 0 0 400 400;" xml:space="preserve">
<style type="text/css">
	.st0{clip-path:url(#SVGID_2_);}
	.st1{fill:#00B4AC;}
	.st2{fill:#E5A82E;}
	.st3{fill:#BE7145;}
	.st4{fill:#AD6D40;}
	.st5{fill:#BB6A32;}
	.st6{fill:#A6CE9B;}
	.st7{fill:#A5BB6C;}
	.st8{fill:#9FAE6F;}
	.st9{fill:#9FAB6A;}
	.st10{fill:#FFFFFF;}
	.st11{fill:#ECBE6F;}
	.st12{fill:#6BC7C2;}
</style>
<g>
	<defs>
		<path id="SVGID_1_" d="M373.2,200.9c0,93.7-75.9,169.6-169.6,169.6C110,370.5,34,294.5,34,200.9C34,107.2,110,31.3,203.6,31.3
			C297.3,31.3,373.2,107.2,373.2,200.9z"/>
	</defs>
	<clipPath id="SVGID_2_">
		<use xlink:href="#SVGID_1_"  style="overflow:visible;"/>
	</clipPath>
	<g class="st0">
		<polyline class="st1" points="41.7,235.3 -23.3,31 214.4,-21 229.3,231.6 41.7,235.3 		"/>
		<polyline class="st2" points="195.9,3.1 370.4,19.8 385.3,281.7 188.4,279.9 195.9,3.1 		"/>
		<path class="st3" d="M34.3,406.2l-11-80.3c44.8-44.4,89.8-73.6,129.6-92.8l36.8-0.7l-1.3,47.5l14.1,0.1l5.8,105.2L34.3,406.2
			 M14.5,261.1l-8.1-59.2l24.5-0.6l10.7,33.8C31.4,244.1,22.4,252.9,14.5,261.1"/>
		<path class="st4" d="M41.6,235.1l-10.7-33.8L86,200C69.5,211.5,54.6,223.5,41.6,235.1 M152.9,233.1c13-6.3,25.5-11.5,37.2-15.9
			l-0.4,15.1L152.9,233.1"/>
		<path class="st5" d="M202.6,280l-14.1-0.1l1.3-47.5l0.4-15.1c18.1-6.7,34.5-11.3,48.3-14.4L238,226h-38.4L202.6,280"/>
		<path class="st6" d="M377.9,402.5l-78.4-4L310.1,281l75.2,0.7l-1.2-21.5c3.6,5,7,9.8,10,14.3L377.9,402.5 M288.2,397.9l-79.3-4.1
			l-0.5-8.6l26.5-3.2l2-101.7l49.9,0.5L288.2,397.9 M394.8,268.5c-3.9-7.8-7.8-15.2-11.5-22.3l-1.1-20.2h18L394.8,268.5"/>
		<path class="st7" d="M385.3,281.7l-75.2-0.7l5-55h41.2c9.9,10.5,19.5,22.8,27.8,34.2L385.3,281.7 M286.8,280.8l-49.9-0.5L238,226
			h48.1L286.8,280.8 M383.3,246.2c-3.8-7.1-7.4-13.8-11-20.2h9.8L383.3,246.2"/>
		<polyline class="st8" points="208.4,385.2 202.6,280 236.9,280.3 234.9,382.1 208.4,385.2 		"/>
		<polyline class="st9" points="236.9,280.3 202.6,280 199.6,226 238,226 236.9,280.3 		"/>
		<path class="st10" d="M-25.2,307.8c0,0,125.9-183.1,332.1-179.3c0,0,44.1,46.3,102.6,170.1c0,0-56.2-95-92-99.1l-20.1,220.7
			l-9.2-16.7l-2.5-207.3c0,0-157.1,0.8-297.6,168L-25.2,307.8"/>
		<path class="st11" d="M339.6,172.1c-4.4-6.6-8.4-12.4-12-17.4l48.9-23l1.8,30.7L339.6,172.1"/>
		<polyline class="st10" points="11.6,140.8 11.3,140.7 8.8,132 11.6,140.8 		"/>
		<path class="st12" d="M148.3,163.6L11.6,140.8L8.8,132l-7.6-26.3l174.2,46.3C166.1,155.5,157,159.4,148.3,163.6"/>
		<polyline class="st10" points="374.1,83.6 372.6,58.3 372.7,58.2 374.1,83.6 		"/>
		<path class="st11" d="M322.7,147.9c-4.4-5.9-8-10.3-10.6-13.5l60.6-76.1l1.4,25.3l1.2,23.3L322.7,147.9"/>
		<polyline class="st12" points="192.4,131.6 10.7,23.7 54.9,14 192.9,113.4 192.4,131.6 		"/>
		<path class="st11" d="M208.3,141.1l-15.9-9.4l0.5-18.3l32.5,23.4C219.6,138.1,213.9,139.5,208.3,141.1"/>
		<polyline class="st10" points="138.7,-4.5 138.7,-4.5 166.3,-10.7 166.4,-10.5 138.7,-4.5 		"/>
		<polyline class="st12" points="194.1,67.9 138.7,-4.5 166.4,-10.5 195,34.9 194.1,67.9 		"/>
		<path class="st11" d="M243.9,133.1l-49.8-65.2l0.9-33l60.7,96.4C251.7,131.9,247.8,132.5,243.9,133.1"/>
		<polyline class="st10" points="340,16.9 329.9,15.9 340.1,16.6 340,16.9 		"/>
		<path class="st11" d="M308.7,130.4c-1.2-1.4-1.8-2-1.8-2c-2.1,0-4.1,0-6.2,0c-1.5,0-3,0-4.5,0l12-113.7l21.8,1.3l10.1,1
			L308.7,130.4 M268.5,129.9L239.1,7.7l32,3.1l12,118C278.2,129.1,273.3,129.4,268.5,129.9"/>
		<path class="st10" d="M291,184.2l-23-0.7l-119.8-20c8.7-4.1,17.8-8,27.1-11.6l92.7,24.6l-59.8-35.5c5.6-1.6,11.3-3,17.1-4.3
			l47.6,34.2l-29-37.9c3.9-0.6,7.8-1.2,11.7-1.8l21.4,34.1l-8.6-35.5c4.8-0.4,9.6-0.8,14.5-1.1l3.8,37.3l25.2-31.7
			c2.6,3.2,6.2,7.6,10.6,13.5L293.1,171l34.5-16.3c3.6,5,7.6,10.8,12,17.4L291,184.2 M294.8,141.7l1.4-13.3c1.5,0,3,0,4.5,0
			c2.1,0,4.1,0,6.2,0c0,0,0.7,0.7,1.8,2l-2.9,10.4L294.8,141.7"/>
	</g>
</g>
<g>
	<path class="st10" d="M203.6,376.2c-96.7,0-175.3-78.6-175.3-175.3c0-96.7,78.6-175.3,175.3-175.3c96.7,0,175.3,78.6,175.3,175.3
		C378.9,297.5,300.2,376.2,203.6,376.2z M203.6,37.4c-90.2,0-163.5,73.4-163.5,163.5c0,90.2,73.4,163.5,163.5,163.5
		c90.2,0,163.5-73.4,163.5-163.5C367.1,110.7,293.8,37.4,203.6,37.4z"/>
</g>
</svg>
